<svg width="46" height="46" viewBox="0 0 46 46" fill="none" xmlns="http://www.w3.org/2000/svg">
<g id="bxs:clinic">
<path id="Vector" d="M41.6741 23.6344L24.4241 4.46771C23.6977 3.65888 22.3023 3.65888 21.5759 4.46771L4.32593 23.6344C4.07763 23.9096 3.91466 24.251 3.85681 24.6172C3.79897 24.9833 3.84874 25.3583 4.00009 25.6967C4.30676 26.3886 4.99293 26.8333 5.75001 26.8333H9.58334V40.25C9.58334 40.7583 9.78528 41.2458 10.1447 41.6052C10.5042 41.9647 10.9917 42.1666 11.5 42.1666H34.5C35.0083 42.1666 35.4959 41.9647 35.8553 41.6052C36.2147 41.2458 36.4167 40.7583 36.4167 40.25V26.8333H40.25C40.6212 26.8349 40.9848 26.7284 41.2966 26.5269C41.6083 26.3254 41.8547 26.0375 42.0057 25.6984C42.1566 25.3593 42.2057 24.9836 42.1468 24.6171C42.0879 24.2506 41.9237 23.9091 41.6741 23.6344ZM30.6667 28.75H24.9167V34.5H21.0833V28.75H15.3333V24.9166H21.0833V19.1666H24.9167V24.9166H30.6667V28.75Z" fill="white"/>
</g>
</svg>
