<svg width="103" height="103" viewBox="0 0 103 103" fill="none" xmlns="http://www.w3.org/2000/svg">
<g id="Group 10">
<g id="Group 8">
<g id="Ellipse 6" filter="url(#filter0_d_10_383)">
<circle cx="51.5" cy="38.5" r="27.5" fill="white"/>
</g>
</g>
<path id="Vector" d="M60.7058 40.9554L57.6052 40.0327L57.6661 39.8925C57.7036 39.8061 57.7213 39.7118 57.7177 39.617C57.7141 39.5222 57.6894 39.4296 57.6455 39.3465C57.6016 39.2634 57.5397 39.1921 57.4647 39.1383C57.3897 39.0845 57.3037 39.0496 57.2136 39.0365L54.8481 38.6916C54.7732 38.6807 54.6968 38.6953 54.6305 38.7332C54.5641 38.7711 54.5113 38.8303 54.4798 38.9021C54.3805 38.7763 54.3092 38.6291 54.2712 38.4711C54.8231 38.0862 55.2935 37.5876 55.6534 37.006C56.0133 36.4244 56.2551 35.7721 56.3639 35.0894C56.8186 35.0401 57.2397 34.817 57.546 34.4633C57.8523 34.1096 58.0221 33.6503 58.0226 33.1738V33.1634C58.022 32.7051 57.8649 32.2621 57.5793 31.9136C57.2938 31.5651 56.8985 31.334 56.4642 31.2616L56.7626 28.1898C56.7895 27.9123 56.7604 27.6321 56.6771 27.3671C56.5938 27.1021 56.4582 26.8582 56.279 26.6511C56.1015 26.4464 55.8848 26.2828 55.6429 26.1707C55.401 26.0585 55.1393 26.0004 54.8746 26H49.1254C48.8607 26.0004 48.5989 26.0585 48.3571 26.1707C48.1152 26.2828 47.8985 26.4464 47.7209 26.6511C47.5418 26.8582 47.4062 27.1021 47.3229 27.3671C47.2396 27.6321 47.2105 27.9124 47.2374 28.1898L47.5358 31.2616C47.1016 31.334 46.7063 31.5651 46.4207 31.9136C46.1352 32.2621 45.978 32.7051 45.9774 33.1634V33.1738C45.978 33.6502 46.1478 34.1096 46.454 34.4633C46.7603 34.817 47.1814 35.04 47.6361 35.0894C47.7456 35.7766 47.9899 36.433 48.3538 37.0174C48.7176 37.6018 49.1932 38.1017 49.7508 38.486C49.7119 38.6391 49.6415 38.7816 49.5446 38.9036C49.5134 38.8316 49.4607 38.7721 49.3944 38.7338C49.3281 38.6956 49.2517 38.6808 49.1766 38.6915L46.763 39.0371C46.6727 39.05 46.5865 39.0848 46.5114 39.1385C46.4362 39.1922 46.3741 39.2635 46.33 39.3467C46.286 39.4298 46.2611 39.5225 46.2575 39.6174C46.2539 39.7123 46.2716 39.8068 46.3092 39.8934L46.3754 40.0459L43.3193 40.9554C42.6597 41.154 42.0796 41.57 41.666 42.141C41.2524 42.7121 41.0275 43.4075 41.0251 44.1229L41 50.6307C40.9998 50.6788 41.0087 50.7264 41.0262 50.7709C41.0437 50.8154 41.0694 50.8559 41.1019 50.8901C41.1344 50.9242 41.1731 50.9513 41.2156 50.9699C41.2582 50.9885 41.3039 50.9981 41.35 50.9983H41.3514C41.4444 50.9983 41.5335 50.96 41.5994 50.8916C41.6653 50.8232 41.7025 50.7305 41.7028 50.6336L41.7279 44.1244C41.7296 43.5677 41.9044 43.0266 42.2261 42.5823C42.5479 42.1379 42.9992 41.8141 43.5124 41.6596L43.9633 41.5254C43.534 42.4883 43.3382 43.5463 43.3932 44.6065C43.0367 44.7721 42.7442 45.0581 42.5628 45.4183C42.3814 45.7784 42.3218 46.1917 42.3935 46.5916L42.7361 48.4868C42.7447 48.5341 42.7621 48.5791 42.7873 48.6194C42.8126 48.6596 42.8452 48.6943 42.8833 48.7214C42.9214 48.7486 42.9643 48.7676 43.0094 48.7774C43.0546 48.7873 43.1012 48.7878 43.1466 48.7789L43.7568 48.659C43.8026 48.6505 43.8462 48.6327 43.8852 48.6065C43.9243 48.5803 43.958 48.5463 43.9843 48.5065C44.0107 48.4667 44.0292 48.4218 44.0389 48.3745C44.0485 48.3272 44.049 48.2783 44.0404 48.2308C44.0318 48.1832 44.0143 48.1379 43.9888 48.0975C43.9633 48.057 43.9304 48.0223 43.8919 47.9952C43.8534 47.9681 43.8102 47.9492 43.7647 47.9396C43.7192 47.93 43.6723 47.93 43.6267 47.9394L43.3618 47.9914L43.0841 46.456C43.0591 46.3173 43.0605 46.1749 43.0882 46.0369C43.116 45.8988 43.1696 45.7678 43.2459 45.6513C43.3223 45.5348 43.4199 45.4351 43.5332 45.358C43.6465 45.2808 43.7733 45.2276 43.9063 45.2015C44.0393 45.1754 44.176 45.1768 44.3085 45.2058C44.441 45.2347 44.5667 45.2905 44.6785 45.3701C44.7903 45.4496 44.8859 45.5513 44.96 45.6694C45.0341 45.7875 45.0851 45.9196 45.1101 46.0582L45.3877 47.5936L45.1228 47.6456C45.077 47.6541 45.0334 47.672 44.9944 47.6982C44.9553 47.7244 44.9216 47.7583 44.8953 47.7982C44.8689 47.838 44.8504 47.8829 44.8407 47.9302C44.8311 47.9775 44.8306 48.0264 44.8392 48.0739C44.8478 48.1215 44.8653 48.1668 44.8908 48.2072C44.9163 48.2476 44.9492 48.2824 44.9877 48.3095C45.0262 48.3366 45.0694 48.3555 45.1149 48.3651C45.1604 48.3746 45.2073 48.3747 45.2529 48.3653L45.8632 48.2455C45.9548 48.2275 46.0358 48.1723 46.0883 48.0921C46.1409 48.0119 46.1607 47.9133 46.1434 47.8178L45.8008 45.9227C45.7252 45.508 45.5129 45.1339 45.2006 44.8651C44.8883 44.5963 44.4956 44.4498 44.0906 44.4509C44.0535 43.3224 44.3364 42.2075 44.9038 41.2455L46.6684 40.7204L47.6996 43.0945L46.468 43.4368C46.3905 43.4583 46.3181 43.4962 46.2552 43.5481C46.1923 43.6 46.1404 43.6647 46.1025 43.7384C46.0647 43.8121 46.0417 43.893 46.0352 43.9763C46.0286 44.0596 46.0384 44.1434 46.0642 44.2225L48.1888 50.7498C48.2191 50.8413 48.2829 50.9167 48.3663 50.9593C48.4497 51.0019 48.546 51.0084 48.634 50.9773C48.722 50.9462 48.7946 50.8801 48.8359 50.7933C48.8772 50.7066 48.8838 50.6064 48.8544 50.5145L46.77 44.1109L48.0142 43.7651C48.0964 43.7423 48.1728 43.7011 48.2381 43.6444C48.3034 43.5877 48.3561 43.5168 48.3925 43.4367C48.4289 43.3567 48.4482 43.2693 48.4489 43.1807C48.4497 43.0921 48.4319 43.0044 48.3968 42.9237L47.0141 39.7404L48.9204 39.4675L50.2814 50.6781C50.2931 50.7745 50.3411 50.8621 50.4147 50.9216C50.4884 50.9811 50.5817 51.0077 50.6742 50.9955C50.7666 50.9833 50.8507 50.9333 50.9078 50.8566C50.9649 50.7798 50.9904 50.6826 50.9787 50.5862L49.8303 41.1277C50.5144 41.3163 51.2191 41.4118 51.9267 41.4117C51.9389 41.4117 51.951 41.4117 51.9632 41.4116C52.7168 41.4084 53.4663 41.2967 54.1906 41.0798L52.9964 50.5846C52.9843 50.6809 53.0094 50.7783 53.0662 50.8553C53.1229 50.9323 53.2068 50.9826 53.2992 50.9952C53.3916 51.0079 53.485 50.9817 53.5589 50.9225C53.6328 50.8633 53.6811 50.776 53.6932 50.6797L54.9587 40.6074L54.9588 40.6064L55.1019 39.4681L56.9612 39.7392L55.5781 42.9237C55.543 43.0044 55.5252 43.0921 55.526 43.1807C55.5267 43.2693 55.546 43.3567 55.5824 43.4368C55.6188 43.5168 55.6715 43.5877 55.7368 43.6444C55.8022 43.7011 55.8786 43.7423 55.9607 43.7651L57.2048 44.1108L55.1205 50.5146C55.1054 50.5602 55.0991 50.6084 55.102 50.6566C55.1049 50.7047 55.1169 50.7518 55.1373 50.7951C55.1576 50.8384 55.186 50.8771 55.2208 50.9089C55.2556 50.9407 55.296 50.9651 55.3399 50.9806C55.3837 50.9961 55.43 51.0024 55.4762 50.9992C55.5224 50.996 55.5675 50.9833 55.609 50.9618C55.6504 50.9404 55.6874 50.9106 55.7178 50.8742C55.7482 50.8378 55.7714 50.7956 55.7861 50.7498L57.9106 44.2226C57.9364 44.1435 57.9462 44.0597 57.9397 43.9764C57.9331 43.8931 57.9102 43.8121 57.8723 43.7385C57.8345 43.6648 57.7825 43.6 57.7196 43.5481C57.6568 43.4962 57.5844 43.4584 57.5069 43.4368L56.2753 43.0946L57.3123 40.7072L58.7099 41.1232C59.0908 41.6965 59.3531 42.3462 59.4801 43.0308C59.5716 43.5322 59.5883 44.0452 59.5296 44.5519C59.1491 44.6484 58.8161 44.8875 58.5941 45.2236C58.3722 45.5598 58.2768 45.9693 58.3262 46.374C58.3756 46.7788 58.5664 47.1504 58.862 47.4179C59.1577 47.6854 59.5376 47.83 59.9291 47.8241C60.3206 47.8183 60.6963 47.6624 60.9845 47.3862C61.2727 47.1099 61.4531 46.7328 61.4914 46.3267C61.5297 45.9207 61.423 45.5142 61.1919 45.1848C60.9608 44.8555 60.6213 44.6264 60.2384 44.5413C60.3449 43.4659 60.1544 42.3811 59.6894 41.4147L60.5128 41.6597C61.0258 41.8141 61.4769 42.1376 61.7986 42.5817C62.1203 43.0258 62.2953 43.5666 62.2972 44.123L62.2721 50.6307C62.2719 50.6788 62.2808 50.7265 62.2983 50.771C62.3158 50.8155 62.3415 50.856 62.374 50.8901C62.4065 50.9242 62.4451 50.9514 62.4877 50.97C62.5303 50.9885 62.5759 50.9982 62.6221 50.9984H62.6235C62.7164 50.9984 62.8056 50.96 62.8715 50.8917C62.9373 50.8233 62.9745 50.7305 62.9749 50.6337L63 44.1244C62.9978 43.4087 62.7731 42.7131 62.3595 42.1417C61.9458 41.5704 61.3656 41.1542 60.7058 40.9555L60.7058 40.9554ZM56.4291 34.2667V31.9998C56.682 32.0602 56.9077 32.2082 57.0695 32.4195C57.2313 32.6308 57.3195 32.8931 57.3198 33.1634V33.1738C57.3195 33.4442 57.2312 33.7064 57.0695 33.9177C56.9077 34.129 56.682 34.2769 56.4291 34.3373V34.2667ZM47.5708 34.2667V34.3374C47.318 34.2769 47.0923 34.129 46.9305 33.9177C46.7688 33.7064 46.6805 33.4441 46.6802 33.1738V33.1634C46.6805 32.8931 46.7688 32.6309 46.9305 32.4195C47.0923 32.2082 47.318 32.0603 47.5709 31.9998L47.5708 34.2667ZM47.9366 28.116C47.9195 27.9404 47.9379 27.7631 47.9906 27.5953C48.0432 27.4276 48.129 27.2733 48.2423 27.1422C48.3533 27.0126 48.4894 26.9091 48.6416 26.8385C48.7938 26.7678 48.9587 26.7317 49.1254 26.7324H54.8746C55.0412 26.7317 55.2061 26.7678 55.3583 26.8385C55.5106 26.9091 55.6467 27.0126 55.7576 27.1422C55.871 27.2733 55.9567 27.4276 56.0094 27.5953C56.0621 27.7631 56.0805 27.9404 56.0634 28.116L55.8814 29.9884C55.6113 29.7528 55.2702 29.6238 54.9179 29.624H49.0821C48.7298 29.6237 48.3886 29.7528 48.1185 29.9884L47.9366 28.116ZM48.2736 34.2667V31.2068C48.2729 30.9824 48.3575 30.7668 48.5091 30.6074C48.6606 30.4479 48.8667 30.3576 49.0821 30.3563H54.9179C55.1333 30.3576 55.3393 30.4479 55.4909 30.6074C55.6424 30.7668 55.7271 30.9824 55.7263 31.2068V34.2667C55.7256 35.0132 55.5397 35.7468 55.1866 36.3963C54.8335 37.0458 54.3252 37.5891 53.7111 37.9735C53.7076 37.9758 53.704 37.978 53.7005 37.9804L53.0799 38.3638C52.753 38.5659 52.38 38.6726 52 38.6726C51.6199 38.6726 51.2469 38.5659 50.9201 38.3638L50.3238 37.9953L50.3226 37.9946L50.2948 37.9774C49.679 37.5934 49.1692 37.0498 48.815 36.3995C48.4608 35.7493 48.2743 35.0145 48.2736 34.2667ZM54.2909 40.2808C53.5391 40.5413 52.7523 40.6758 51.96 40.6793L51.9267 40.6793C51.1837 40.6794 50.4449 40.5643 49.7344 40.3378L49.6637 39.7553C49.9832 39.5481 50.2301 39.239 50.3677 38.874L50.5616 38.9938C50.9969 39.2629 51.4938 39.405 52 39.405C52.5062 39.405 53.003 39.2629 53.4383 38.9938L53.6533 38.861C53.7894 39.2295 54.0364 39.5422 54.3573 39.7522L54.2909 40.2808ZM59.9059 45.237C60.0819 45.237 60.254 45.2914 60.4004 45.3933C60.5468 45.4953 60.6609 45.6402 60.7283 45.8097C60.7957 45.9792 60.8133 46.1657 60.779 46.3457C60.7446 46.5256 60.6598 46.6909 60.5353 46.8206C60.4108 46.9504 60.2522 47.0387 60.0795 47.0745C59.9068 47.1103 59.7278 47.0919 59.5652 47.0217C59.4025 46.9515 59.2635 46.8326 59.1656 46.6801C59.0678 46.5275 59.0156 46.3482 59.0156 46.1647C59.0159 45.9187 59.1098 45.6829 59.2767 45.509C59.4436 45.3351 59.6698 45.2373 59.9059 45.237Z" fill="#262626"/>
</g>
<defs>
<filter id="filter0_d_10_383" x="0" y="0" width="103" height="103" filterUnits="userSpaceOnUse" color-interpolation-filters="sRGB">
<feFlood flood-opacity="0" result="BackgroundImageFix"/>
<feColorMatrix in="SourceAlpha" type="matrix" values="0 0 0 0 0 0 0 0 0 0 0 0 0 0 0 0 0 0 127 0" result="hardAlpha"/>
<feOffset dy="13"/>
<feGaussianBlur stdDeviation="12"/>
<feComposite in2="hardAlpha" operator="out"/>
<feColorMatrix type="matrix" values="0 0 0 0 0 0 0 0 0 0 0 0 0 0 0 0 0 0 0.09 0"/>
<feBlend mode="normal" in2="BackgroundImageFix" result="effect1_dropShadow_10_383"/>
<feBlend mode="normal" in="SourceGraphic" in2="effect1_dropShadow_10_383" result="shape"/>
</filter>
</defs>
</svg>
