<svg width="137" height="137" viewBox="0 0 137 137" fill="none" xmlns="http://www.w3.org/2000/svg">
<g id="Group 15">
<g id="Ellipse 8" filter="url(#filter0_d_10_397)">
<circle cx="68.5" cy="58.5" r="52.5" fill="url(#paint0_linear_10_397)" shape-rendering="crispEdges"/>
</g>
<g id="Group 14">
<path id="Vector" d="M86.1053 52.4474H77.4211V42.8948H57.6842V52.4474H49V75.579H53.8947V80H81.2105V75.579H86.1053V52.4474ZM59.2632 44.4737H75.8421V74H72.5263V67.6842H62.5789V74H59.2632V44.4737ZM70.9474 74H64.0789V69.2632H70.9474V74ZM50.5789 74V54.0264H57.6842V74H50.5789ZM79.6316 78.4211H55.4737V75.579H79.7105V78.4211H79.6316ZM84.5263 74H77.4211V54.0264H84.5263V74Z" fill="white"/>
<g id="Group 13">
<path id="Vector_2" d="M66.7632 54.0263H68.3421V51.7368H70.6316V50.1579H68.3421V47.8684H66.7632V50.1579H64.4737V51.7368H66.7632V54.0263ZM53.3421 57.1052H54.9211V59.5526H53.3421V57.1052ZM53.3421 62.7895H54.9211V65.2368H53.3421V62.7895ZM53.3421 68.4737H54.9211V70.921H53.3421V68.4737ZM80.1842 57.1052H81.7632V59.5526H80.1842V57.1052ZM80.1842 62.7895H81.7632V65.2368H80.1842V62.7895ZM80.1842 68.4737H81.7632V70.921H80.1842V68.4737ZM62.579 57.1052H64.1579V59.5526H62.579V57.1052ZM62.579 62.7895H64.1579V65.2368H62.579V62.7895ZM66.7632 57.1052H68.3421V59.5526H66.7632V57.1052ZM66.7632 62.7895H68.3421V65.2368H66.7632V62.7895ZM70.9474 57.1052H72.5263V59.5526H70.9474V57.1052ZM70.9474 62.7895H72.5263V65.2368H70.9474V62.7895Z" fill="white"/>
<path id="Vector_3" d="M87.2895 35C83.1457 35 79.7895 38.3562 79.7895 42.5C79.7895 46.6438 83.1457 50 87.2895 50C91.4332 50 94.7895 46.6438 94.7895 42.5C94.7895 38.3562 91.4332 35 87.2895 35ZM81.2895 42.5C81.2895 39.185 83.9745 36.5 87.2895 36.5C88.677 36.5 89.9482 36.9762 90.9645 37.7638L82.5532 46.175C81.7657 45.1587 81.2895 43.8875 81.2895 42.5ZM87.2895 48.5C85.902 48.5 84.6307 48.0238 83.6145 47.2362L92.0257 38.825C92.8132 39.8412 93.2895 41.1125 93.2895 42.5C93.2895 45.815 90.6045 48.5 87.2895 48.5Z" fill="white"/>
</g>
</g>
</g>
<defs>
<filter id="filter0_d_10_397" x="0" y="0" width="137" height="137" filterUnits="userSpaceOnUse" color-interpolation-filters="sRGB">
<feFlood flood-opacity="0" result="BackgroundImageFix"/>
<feColorMatrix in="SourceAlpha" type="matrix" values="0 0 0 0 0 0 0 0 0 0 0 0 0 0 0 0 0 0 127 0" result="hardAlpha"/>
<feOffset dy="10"/>
<feGaussianBlur stdDeviation="8"/>
<feComposite in2="hardAlpha" operator="out"/>
<feColorMatrix type="matrix" values="0 0 0 0 0 0 0 0 0 0.5035 0 0 0 0 0.6625 0 0 0 0.31 0"/>
<feBlend mode="normal" in2="BackgroundImageFix" result="effect1_dropShadow_10_397"/>
<feBlend mode="normal" in="SourceGraphic" in2="effect1_dropShadow_10_397" result="shape"/>
</filter>
<linearGradient id="paint0_linear_10_397" x1="69" y1="106.5" x2="69" y2="6" gradientUnits="userSpaceOnUse">
<stop stop-color="#0080A9"/>
<stop offset="1" stop-color="#0080A9" stop-opacity="0.21"/>
</linearGradient>
</defs>
</svg>
