<svg width="199" height="199" viewBox="0 0 199 199" fill="none" xmlns="http://www.w3.org/2000/svg">
<path d="M139.76 64.4185C137.424 61.9622 134.69 60.6314 131.851 60.5716C130.548 60.5452 129.295 60.7843 128.127 61.2819C123.14 63.4051 120.052 70.2111 120.443 78.2187C120.931 88.1367 126.344 95.7499 133.035 95.9274C134.381 95.9637 135.698 95.7122 136.951 95.179C142.03 93.0164 145.377 86.5552 145.279 79.1022C145.202 73.4625 143.139 67.974 139.76 64.4185Z" fill="#F6844D" fill-opacity="0.22"/>
<path d="M69.547 99.8895C64.0457 94.0576 56.9994 91.5664 52.0126 93.6896C50.844 94.1872 49.8028 94.925 48.9192 95.8822C46.9945 97.9702 46.0587 100.864 46.211 104.25C46.432 109.15 48.9585 114.441 52.9707 118.405C58.2756 123.641 65.2531 125.706 70.3323 123.544C71.5844 123.011 72.6789 122.235 73.5856 121.24C78.095 116.293 76.3587 107.115 69.547 99.8895Z" fill="#F6844D" fill-opacity="0.22"/>
<path d="M80.2294 94.2071C80.6999 94.0306 81.1607 93.8194 81.5987 93.5797C84.1727 92.1722 86.0146 89.7597 86.9258 86.6024C88.3958 81.5077 86.7295 75.2209 83.4867 69.4046C78.4974 60.4377 70.5664 55.5368 63.796 58.078C63.796 58.078 62.8478 58.484 62.3845 58.7357C59.5754 60.2742 57.5583 62.933 56.5516 66.4246C55.0919 71.4884 56.0033 77.7102 58.989 83.0678C63.9217 91.9335 73.2515 96.826 80.2294 94.2071Z" fill="#F6844D" fill-opacity="0.22"/>
<path d="M97.7036 95.4154C81.7658 102.201 73.8941 127.932 81.64 146.124C83.9513 151.553 88.5327 154.76 91.9679 155.411C96.2102 156.214 98.9065 156.091 103.746 154.031C109.497 151.582 110.193 148.91 112.129 145.989C113.53 143.877 114.74 142.052 117.128 141.035C119.515 140.018 121.669 140.411 124.162 140.865C127.61 141.494 130.019 142.845 135.77 140.396C140.609 138.335 142.567 136.477 144.928 132.862C146.839 129.934 147.703 124.409 145.391 118.981C137.645 100.788 113.641 88.6295 97.7036 95.4154Z" fill="#F6844D" fill-opacity="0.22"/>
<path d="M107.57 82.4675C108.047 82.3181 108.518 82.132 108.971 81.9152C115.696 78.7004 118.635 68.5836 115.663 58.8838C113.87 53.0183 110.016 48.0491 105.354 45.5919C102.139 43.8978 98.9561 43.5423 95.8998 44.5011C95.3973 44.6604 94.3362 45.0751 94.3362 45.0751C87.812 48.1945 85.8283 57.2624 88.8345 67.0734C90.7801 73.4422 94.1569 79.0005 98.8481 81.4719C101.756 83.0032 104.771 83.3475 107.57 82.4675Z" fill="#F6844D" fill-opacity="0.22"/>
</svg>
