<svg width="103" height="103" viewBox="0 0 103 103" fill="none" xmlns="http://www.w3.org/2000/svg">
<g id="Group 11">
<g id="Group 9">
<g id="Ellipse 6" filter="url(#filter0_d_10_387)">
<circle cx="51.5" cy="38.5" r="27.5" fill="white"/>
</g>
</g>
<path id="Vector" d="M50.8 39.0004V40.2003H49.6C49.2818 40.2003 48.9766 40.3268 48.7515 40.5518C48.5265 40.7768 48.4001 41.082 48.4001 41.4003C48.4001 41.7185 48.5265 42.0238 48.7515 42.2488C48.9766 42.4738 49.2818 42.6003 49.6 42.6003H50.8V43.8002C50.8 44.1185 50.9265 44.4237 51.1515 44.6487C51.3765 44.8738 51.6817 45.0002 52 45.0002C52.3183 45.0002 52.6235 44.8738 52.8485 44.6487C53.0736 44.4237 53.2 44.1185 53.2 43.8002V42.6003H54.4C54.7182 42.6003 55.0234 42.4738 55.2485 42.2488C55.4735 42.0238 55.5999 41.7185 55.5999 41.4003C55.5999 41.082 55.4735 40.7768 55.2485 40.5518C55.0234 40.3268 54.7182 40.2003 54.4 40.2003H53.2V39.0004C53.2 38.6821 53.0736 38.3769 52.8485 38.1519C52.6235 37.9268 52.3183 37.8004 52 37.8004C51.6817 37.8004 51.3765 37.9268 51.1515 38.1519C50.9265 38.3769 50.8 38.6821 50.8 39.0004ZM63.5966 36.9028L52.7968 27.3031C52.5773 27.1079 52.2938 27 52 27C51.7062 27 51.4227 27.1079 51.2032 27.3031L40.4034 36.9028C40.1654 37.1141 40.021 37.4114 40.0021 37.7291C39.9832 38.0469 40.0913 38.3591 40.3026 38.5972C40.514 38.8352 40.8112 38.9796 41.1289 38.9985C41.4467 39.0174 41.7589 38.9093 41.997 38.698L42.4002 38.3392V49.8C42.4002 50.1183 42.5266 50.4235 42.7517 50.6485C42.9767 50.8736 43.2819 51 43.6002 51H60.3998C60.7181 51 61.0233 50.8736 61.2483 50.6485C61.4734 50.4235 61.5998 50.1183 61.5998 49.8V38.3392L62.003 38.698C62.2411 38.9093 62.5533 39.0174 62.8711 38.9985C63.0284 38.9891 63.1824 38.9489 63.3241 38.88C63.4659 38.8112 63.5927 38.715 63.6974 38.5972C63.802 38.4793 63.8824 38.342 63.934 38.193C63.9855 38.0441 64.0072 37.8865 63.9979 37.7291C63.9885 37.5718 63.9483 37.4178 63.8794 37.2761C63.8106 37.1343 63.7144 37.0075 63.5966 36.9028ZM59.1999 48.6001H44.8001V36.2056L52 29.8062L59.1999 36.2056V48.6001Z" fill="#262626"/>
</g>
<defs>
<filter id="filter0_d_10_387" x="0" y="0" width="103" height="103" filterUnits="userSpaceOnUse" color-interpolation-filters="sRGB">
<feFlood flood-opacity="0" result="BackgroundImageFix"/>
<feColorMatrix in="SourceAlpha" type="matrix" values="0 0 0 0 0 0 0 0 0 0 0 0 0 0 0 0 0 0 127 0" result="hardAlpha"/>
<feOffset dy="13"/>
<feGaussianBlur stdDeviation="12"/>
<feComposite in2="hardAlpha" operator="out"/>
<feColorMatrix type="matrix" values="0 0 0 0 0 0 0 0 0 0 0 0 0 0 0 0 0 0 0.09 0"/>
<feBlend mode="normal" in2="BackgroundImageFix" result="effect1_dropShadow_10_387"/>
<feBlend mode="normal" in="SourceGraphic" in2="effect1_dropShadow_10_387" result="shape"/>
</filter>
</defs>
</svg>
