<svg width="55" height="55" viewBox="0 0 55 55" fill="none" xmlns="http://www.w3.org/2000/svg">
<g id="Group 7">
<circle id="Ellipse 6" cx="27.5" cy="27.5" r="27.5" fill="white"/>
<g id="Group">
<path id="Vector" fill-rule="evenodd" clip-rule="evenodd" d="M34.8619 34.2871C34.768 34.286 34.6748 34.3034 34.5877 34.3384C34.5006 34.3733 34.4212 34.4251 34.3541 34.4908C32.6183 36.1909 30.2867 37.1428 27.8571 37.1428C25.4351 37.1428 23.1098 36.1968 21.3755 34.5061C21.2399 34.3738 21.0573 34.3008 20.8679 34.3032C20.6785 34.3056 20.4978 34.3831 20.3655 34.5187C20.2332 34.6543 20.1602 34.8369 20.1626 35.0263C20.165 35.2157 20.2425 35.3965 20.3781 35.5287C22.3787 37.4791 25.063 38.5714 27.8571 38.5714C30.66 38.5714 33.352 37.4732 35.3543 35.512C35.4896 35.3793 35.5666 35.1984 35.5684 35.009C35.5702 34.8195 35.4968 34.6372 35.3641 34.5019C35.2318 34.3666 35.0511 34.2893 34.8619 34.2871ZM20.7143 22.8571C19.5393 22.8571 18.5714 23.825 18.5714 25V30.7143C18.5714 31.8893 19.5393 32.8571 20.7143 32.8571H30C31.175 32.8571 32.1428 31.8893 32.1428 30.7143V29.4098L35.4213 32.2209C36.0585 32.7671 37.1428 32.2678 37.1428 31.4285V24.2857C37.1428 23.8661 36.8713 23.5318 36.5206 23.3705C36.1699 23.2092 35.7399 23.2202 35.4213 23.4933L32.1428 26.3044V25C32.1428 23.825 31.175 22.8571 30 22.8571H20.7143ZM27.8571 17.1428C25.063 17.1428 22.3788 18.2351 20.3781 20.1855C20.2425 20.3178 20.1649 20.4985 20.1626 20.6879C20.1602 20.8774 20.2332 21.0599 20.3655 21.1956C20.4978 21.3312 20.6785 21.4087 20.8679 21.411C21.0573 21.4134 21.2399 21.3404 21.3755 21.2081C23.1099 19.5174 25.4351 18.5714 27.8571 18.5714C30.2867 18.5714 32.6183 19.5234 34.3541 21.2235C34.4895 21.3559 34.672 21.4291 34.8614 21.4271C35.0508 21.425 35.2316 21.3477 35.3641 21.2123C35.4967 21.0771 35.5702 20.8947 35.5684 20.7053C35.5665 20.5159 35.4895 20.3349 35.3543 20.2023C33.352 18.241 30.66 17.1428 27.8571 17.1428Z" fill="#F6844D"/>
</g>
</g>
</svg>
