<svg width="54" height="63" viewBox="0 0 54 63" fill="none" xmlns="http://www.w3.org/2000/svg">
<path id="Vector" d="M18.0418 23.779C21.1874 23.2366 23.5202 20.3305 23.8753 16.8588C24.2357 13.3282 25.0484 -0.859942 19.7982 0.0425671C6.17921 2.3858 7.13502 25.6552 18.0418 23.779ZM35.9606 23.779C46.8647 25.6552 47.8206 2.3858 34.2016 0.0411977C28.9527 -0.861311 29.7641 13.3268 30.1232 16.8574C30.4796 20.3305 32.8151 23.2366 35.9606 23.779ZM12.4474 34.7419C12.4474 32.8958 11.798 31.2223 10.7517 30.0048C9.03045 27.7232 3.55882 23.1093 2.21555 24.2912C-0.588436 26.7645 -0.497985 32.852 1.19089 37.2755C2.05895 39.7351 4.15553 41.4648 6.60582 41.4648C9.83101 41.4648 12.4474 38.4547 12.4474 34.7419ZM51.7829 24.2912C50.4423 23.1093 44.9707 27.7232 43.2494 30.0048C42.2031 31.2223 41.5524 32.8958 41.5524 34.7419C41.5524 38.4547 44.1715 41.4648 47.394 41.4648C49.8456 41.4648 51.9435 39.7351 52.8116 37.2755C54.4964 32.852 54.5896 26.7645 51.7829 24.2912ZM40.7991 45.2132C35.8364 42.7029 35.9903 37.8685 34.8617 33.4573C33.964 29.939 30.7847 27.337 27.0006 27.337C25.2453 27.3322 23.5359 27.9053 22.1291 28.9701C20.7223 30.0349 19.6941 31.534 19.1988 33.2423C17.9905 37.4631 18.7182 42.3769 13.3087 45.1803C8.91435 46.6334 7.13503 48.7534 7.13503 53.7672C7.13503 57.8401 10.5816 62.2006 15.0299 62.743C19.9926 63.5017 23.8645 62.5101 27.0006 60.6969C30.1367 62.5101 34.0058 63.5003 38.9766 62.743C43.4222 62.2006 46.8701 57.8565 46.8701 53.7672C46.8688 48.6438 45.2029 46.7347 40.7991 45.2132ZM34.9441 51.3404H29.7991L29.8059 56.8184H24.1952L24.2033 51.3404H18.7438V45.8623H24.2047L24.1966 40.3843H29.8073L29.8005 45.8623H34.9441V51.3404Z" fill="#0080A9"/>
</svg>
