<svg width="47" height="47" viewBox="0 0 47 47" fill="none" xmlns="http://www.w3.org/2000/svg">
<g id="mdi:email-fast">
<path id="Vector" d="M43.0833 10.7708H17.625C15.4708 10.7708 13.7083 12.5333 13.7083 14.6874V32.3124C13.7083 33.3512 14.121 34.3474 14.8555 35.0819C15.59 35.8164 16.5862 36.2291 17.625 36.2291H43.0833C45.2571 36.2291 47 34.4862 47 32.3124V14.6874C47 13.6487 46.5874 12.6524 45.8528 11.9179C45.1183 11.1834 44.1221 10.7708 43.0833 10.7708ZM43.0833 17.9578L30.3542 24.4791L17.625 17.9578V14.6874L30.3542 21.1695L43.0833 14.6874V17.9578ZM9.79167 32.3124C9.79167 32.6453 9.85042 32.9587 9.88958 33.2916H1.95833C0.877333 33.2916 0 32.4103 0 31.3333C0 30.2562 0.877333 29.3749 1.95833 29.3749H9.79167V32.3124ZM5.875 13.7083H9.88958C9.85042 14.0412 9.79167 14.3545 9.79167 14.6874V17.6249H5.875C4.79792 17.6249 3.91667 16.7437 3.91667 15.6666C3.91667 14.5895 4.79792 13.7083 5.875 13.7083ZM1.95833 23.4999C1.95833 22.4228 2.83958 21.5416 3.91667 21.5416H9.79167V25.4583H3.91667C2.83958 25.4583 1.95833 24.577 1.95833 23.4999Z" fill="#F6844D"/>
</g>
</svg>
