<svg width="209" height="209" viewBox="0 0 209 209" fill="none" xmlns="http://www.w3.org/2000/svg">
<g id="Group 18">
<g id="Group 3">
<path id="Vector" d="M129.287 31.9411C124.629 30.566 120.282 30.8738 116.716 32.8336C115.081 33.7338 113.697 34.9284 112.604 36.3832C107.937 42.5908 108.981 53.2487 115.204 62.9052C122.914 74.8634 135.086 80.4324 143.516 75.859C145.212 74.9399 146.667 73.6838 147.839 72.1249C152.593 65.8023 152.117 55.3864 146.656 46.2078C142.52 39.2647 136.027 33.9321 129.287 31.9411Z" fill="#F6844D" fill-opacity="0.22"/>
<path id="Vector_2" d="M67.5711 126.261C56.5662 122.965 46.0375 124.922 41.3705 131.13C40.2767 132.585 39.5133 134.246 39.1027 136.067C38.2101 140.037 39.1221 144.298 41.7368 148.391C45.5216 154.313 52.4478 159.069 60.2668 161.114C70.6011 163.811 80.7392 161.374 85.4927 155.052C86.6645 153.493 87.4671 151.746 87.8793 149.862C89.9311 140.493 81.2004 130.347 67.5711 126.261Z" fill="#F6844D" fill-opacity="0.22"/>
<path id="Vector_3" d="M76.7561 111.557C77.2135 111 77.634 110.408 78.0058 109.797C80.1916 106.206 80.7488 101.893 79.6174 97.3221C77.7915 89.9468 71.2195 83.3391 63.0285 78.4448C50.4128 70.8921 37.0598 70.4926 30.4788 78.4967C30.4788 78.4967 29.5931 79.6799 29.1985 80.3241C26.8148 84.2458 26.2168 88.9904 27.469 94.0445C29.2856 101.374 34.8741 108.442 42.4177 112.951C54.8905 120.419 69.9733 119.806 76.7561 111.557Z" fill="#F6844D" fill-opacity="0.22"/>
<path id="Vector_4" d="M99.306 100.537C84.3902 120.376 93.0566 157.945 115.703 174.971C122.46 180.052 130.443 180.749 135.172 179.096C141.012 177.054 144.27 174.969 148.799 168.944C154.181 161.786 153.13 157.971 153.44 152.959C153.665 149.334 153.859 146.203 156.094 143.231C158.328 140.258 161.283 139.203 164.702 137.98C169.431 136.29 173.387 136.241 178.769 129.082C183.299 123.057 184.396 119.349 184.736 113.171C185.011 108.169 182.123 100.694 175.366 95.6136C152.72 78.5876 114.222 80.6972 99.306 100.537Z" fill="#F6844D" fill-opacity="0.22"/>
<path id="Vector_5" d="M102.273 77.4003C102.757 76.8736 103.209 76.3047 103.616 75.7111C109.657 66.9041 106.057 52.244 95.419 42.3369C88.9918 36.3427 80.6492 32.9375 73.104 33.2281C67.9009 33.429 63.6959 35.2686 60.5903 38.6481C60.0807 39.2058 59.0612 40.4806 59.0612 40.4806C53.2 49.0257 57.2351 61.6996 67.9946 71.7205C74.9719 78.2298 83.1445 82.7079 90.7365 82.4138C95.4419 82.2308 99.4307 80.4974 102.273 77.4003Z" fill="#F6844D" fill-opacity="0.22"/>
</g>
</g>
</svg>
