<svg width="21" height="22" viewBox="0 0 21 22" fill="none" xmlns="http://www.w3.org/2000/svg">
<path d="M20.7718 7.69141C20.5321 7.04992 20.129 6.58606 19.606 6.35025C19.366 6.24224 19.1141 6.1875 18.8574 6.1875C17.7623 6.1875 16.6496 7.20835 16.0885 8.72795C15.3941 10.6103 15.7978 12.4541 17.0276 13.0167C17.2749 13.13 17.5398 13.1875 17.8148 13.1875C18.9302 13.1875 20.0639 12.2513 20.6356 10.858C21.0677 9.80349 21.1185 8.61984 20.7718 7.69141Z" fill="white"/>
<path d="M4.91152 8.72795C4.35043 7.20835 3.2377 6.1875 2.14258 6.1875C1.88594 6.1875 1.63399 6.24224 1.39397 6.35025C0.870881 6.58606 0.467889 7.04992 0.228193 7.69141C-0.11858 8.61984 -0.0677205 9.80349 0.364365 10.858C0.936123 12.2513 2.0698 13.1875 3.1852 13.1875C3.46017 13.1875 3.72502 13.13 3.97237 13.0167C5.20219 12.4541 5.60594 10.6103 4.91152 8.72795Z" fill="white"/>
<path d="M7.34718 8.51724C7.44862 8.52167 7.551 8.51888 7.6514 8.50898C8.24132 8.45107 8.77469 8.14838 9.19397 7.63355C9.87051 6.80279 10.0584 5.50216 9.9159 4.16423C9.69814 2.10234 8.61166 0.563492 7.15189 0.5C7.15189 0.5 6.94347 0.500438 6.83744 0.510555C6.19344 0.574211 5.60801 0.908844 5.14447 1.47825C4.47231 2.30409 4.14927 3.53286 4.28025 4.76519C4.4955 6.80377 5.84267 8.45178 7.34718 8.51724Z" fill="white"/>
<path d="M10.5 10.125C7 10.125 3.5 14.2853 3.5 18.2804C3.5 19.4725 4.09784 20.4314 4.68491 20.8243C5.40996 21.3095 5.92096 21.5 6.98381 21.5C8.24671 21.5 8.58752 21.0582 9.17875 20.6685C9.60635 20.3867 9.97566 20.1432 10.5001 20.1432C11.0245 20.1432 11.3938 20.3867 11.8213 20.6685C12.4125 21.0582 12.7533 21.5 14.0162 21.5C15.079 21.5 15.59 21.3095 16.3151 20.8243C16.9022 20.4314 17.5 19.4725 17.5 18.2804C17.5 14.2853 14 10.125 10.5 10.125Z" fill="white"/>
<path d="M13.3591 8.49887C13.4595 8.50882 13.562 8.51155 13.6634 8.50712C15.1679 8.44172 16.5151 6.79366 16.7303 4.75518C16.8613 3.52285 16.5381 2.29402 15.866 1.46824C15.4025 0.898835 14.8388 0.580772 14.1948 0.517116C14.0887 0.506944 13.8587 0.500053 13.8587 0.500053C12.3989 0.563546 11.3123 2.09228 11.0946 4.15411C10.9522 5.49209 11.14 6.79267 11.8165 7.62343C12.2359 8.13826 12.7692 8.44095 13.3591 8.49887Z" fill="white"/>
</svg>
