<svg width="28" height="27" viewBox="0 0 28 27" fill="none" xmlns="http://www.w3.org/2000/svg">
<path d="M13.6196 1.17082C13.7393 0.802297 14.2607 0.802296 14.3804 1.17082L17.2779 10.0884C17.3315 10.2532 17.485 10.3647 17.6583 10.3647H27.0348C27.4223 10.3647 27.5834 10.8606 27.2699 11.0884L19.6842 16.5997C19.544 16.7015 19.4853 16.8821 19.5389 17.0469L22.4364 25.9644C22.5561 26.333 22.1343 26.6394 21.8208 26.4116L14.2351 20.9003C14.0949 20.7985 13.9051 20.7985 13.7649 20.9003L6.17918 26.4116C5.8657 26.6394 5.4439 26.333 5.56364 25.9644L8.46113 17.0469C8.51468 16.8821 8.45601 16.7015 8.31582 16.5997L0.730112 11.0884C0.416626 10.8606 0.577736 10.3647 0.965225 10.3647H10.3417C10.515 10.3647 10.6685 10.2532 10.7221 10.0884L13.6196 1.17082Z" fill="#EBBC15"/>
</svg>
