<svg width="37" height="30" viewBox="0 0 37 30" fill="none" xmlns="http://www.w3.org/2000/svg">
<path id="Vector" d="M36.9294 25.3846L33.7043 9.92308C33.2436 8.30769 31.631 6.92308 29.7881 6.92308H25.4111V4.15385C25.4111 1.84615 23.5682 0 21.2645 0H15.7357C13.4321 0 11.5891 1.84615 11.5891 4.15385V6.92308H7.21217C5.36924 6.92308 3.75668 8.30769 3.29594 9.92308L0.0708136 25.3846C-0.389919 27.6923 1.45301 30 3.98704 30H32.7828C35.5472 30 37.3902 27.6923 36.9294 25.3846ZM13.8928 4.15385C13.8928 3.23077 14.8143 2.30769 15.7357 2.30769H21.2645C22.186 2.30769 23.1075 3.23077 23.1075 4.15385V6.92308H13.8928V4.15385ZM25.4111 20.7692H20.8038V25.3846H16.1965V20.7692H11.5891V16.1538H16.1965V11.5385H20.8038V16.1538H25.4111V20.7692Z" fill="white"/>
</svg>
